<svg t="1706105054576" class="icon" viewBox="0 0 1024 1024" version="1.1" xmlns="http://www.w3.org/2000/svg" p-id="15356" width="18" height="18"><path d="M208 776h-33.467c-21.396 0-29.155-2.228-36.977-6.411-7.823-4.184-13.961-10.322-18.145-18.145-4.183-7.822-6.411-15.58-6.411-36.977V597.533c0-21.396 2.228-29.155 6.411-36.977 4.184-7.823 10.322-13.961 18.145-18.145 7.822-4.183 15.58-6.411 36.977-6.411H208V125.533c0-21.396 2.228-29.155 6.411-36.977 4.184-7.823 10.322-13.961 18.145-18.145 7.822-4.183 15.58-6.411 36.977-6.411h439.85c10.037-0.702 20.312 2.783 27.985 10.456l164.048 164.049c7.04 7.04 10.555 16.269 10.544 25.495h0.04v634.467c0 21.396-2.228 29.155-6.411 36.977-4.184 7.823-10.322 13.961-18.145 18.145-7.822 4.183-15.58 6.411-36.977 6.411H269.533c-21.396 0-29.155-2.228-36.977-6.411-7.823-4.184-13.961-10.322-18.145-18.145-4.183-7.822-6.411-15.58-6.411-36.977V776z m64-240h451.467c21.396 0 29.155 2.228 36.977 6.411 7.823 4.184 13.961 10.322 18.145 18.145 4.183 7.822 6.411 15.58 6.411 36.977v116.934c0 21.396-2.228 29.155-6.411 36.977-4.184 7.823-10.322 13.961-18.145 18.145-7.822 4.183-15.58 6.411-36.977 6.411H272v120h576V286.912L689.088 128H272v408z m-26.28 55.197v79.453c0 7.852-1.04 13.433-3.12 16.744-2.08 3.31-5.346 4.965-9.8 4.965-2.812 0-4.98-0.556-6.503-1.67-2.227-1.699-3.809-3.925-4.746-6.68-0.938-2.753-1.436-6.972-1.494-12.655L182 676.539c0.703 9.961 3.003 18.325 6.9 25.093 3.896 6.767 9.418 11.909 16.567 15.425 7.148 3.515 17.226 5.273 30.234 5.273 12.305 0 22.398-2.666 30.278-7.998 7.881-5.332 13.125-11.836 15.733-19.512 2.607-7.676 3.911-18.867 3.911-33.574v-70.049h-39.902z m59.503 86.221c1.113 13.008 5.888 23.73 14.326 32.168 8.437 8.437 23.613 12.656 45.527 12.656 12.48 0 22.822-1.802 31.026-5.405 8.203-3.604 14.59-8.892 19.16-15.864 4.57-6.973 6.855-14.59 6.855-22.852 0-7.031-1.714-13.389-5.141-19.072-3.428-5.684-8.907-10.444-16.436-14.282-7.53-3.838-19.995-7.632-37.397-11.382-7.032-1.465-11.485-3.047-13.36-4.746-1.933-1.641-2.9-3.487-2.9-5.537 0-2.813 1.172-5.2 3.515-7.164 2.344-1.962 5.83-2.944 10.46-2.944 5.624 0 10.034 1.318 13.227 3.955 3.193 2.637 5.288 6.856 6.284 12.656l37.53-2.197c-1.641-13.36-6.783-23.1-15.425-29.223-8.643-6.124-21.197-9.185-37.661-9.185-13.419 0-23.98 1.685-31.685 5.054-7.705 3.369-13.477 7.998-17.315 13.886-3.837 5.89-5.756 12.144-5.756 18.765 0 10.078 3.75 18.37 11.25 24.873 7.441 6.504 19.892 11.719 37.353 15.645 10.664 2.343 17.461 4.834 20.39 7.47 2.93 2.637 4.395 5.625 4.395 8.965 0 3.516-1.538 6.607-4.614 9.273-3.076 2.666-7.456 3.999-13.14 3.999-7.617 0-13.476-2.608-17.578-7.823-2.52-3.222-4.19-7.91-5.01-14.062l-37.88 2.373z m131.923-21.709c0 15.059 2.96 27.598 8.877 37.617 5.918 10.02 13.638 17.344 23.16 21.973 9.521 4.629 21.547 6.943 36.079 6.943 14.297 0 26.235-2.68 35.815-8.042 9.58-5.361 16.904-12.861 21.973-22.5 5.068-9.639 7.602-21.987 7.602-37.046 0-20.742-5.8-36.87-17.402-48.383C541.648 594.757 525.125 589 503.68 589c-20.918 0-37.237 5.86-48.955 17.578-11.72 11.719-17.579 28.096-17.579 49.131z m39.815 0.176c0-13.125 2.432-22.53 7.295-28.213 4.863-5.684 11.308-8.526 19.336-8.526 8.379 0 15.014 2.798 19.907 8.394 4.893 5.596 7.339 14.458 7.339 26.587 0 14.414-2.344 24.404-7.031 29.97-4.688 5.567-11.309 8.35-19.864 8.35-8.32 0-14.897-2.842-19.731-8.525-4.834-5.684-7.251-15.03-7.251-28.037z m115.4-64.688v128.848h37.442v-70.752l48.252 70.752h37.529V591.197h-37.53v71.28l-48.515-71.28h-37.178z" fill="#00000" p-id="15357"></path></svg>