<?xml version="1.0" standalone="no"?><!DOCTYPE svg PUBLIC "-//W3C//DTD SVG 1.1//EN" "http://www.w3.org/Graphics/SVG/1.1/DTD/svg11.dtd"><svg t="1709478286586" class="icon" viewBox="0 0 1024 1024" version="1.1" xmlns="http://www.w3.org/2000/svg" p-id="6896" width="32" height="32" xmlns:xlink="http://www.w3.org/1999/xlink"><path d="M577.16491 4.216164C296.74428-31.752019 40.196107 166.39648 4.227924 446.84711c-35.968183 280.42063 162.146317 536.936804 442.598946 572.936986 280.45263 35.968183 537.064801-162.178316 572.936986-442.630946 35.999182-280.42063-162.082318-536.936804-442.598946-572.936986z m105.441605 319.365746a36.466172 36.466172 0 0 0-25.310425 10.655758L467.307405 524.224352l-40.545079-40.545079c187.266746-186.722759 221.026979-188.514718 255.844189-160.130362z m-207.495287 207.395289l189.446697-189.443697a26.469399 26.469399 0 1 1 36.192178 38.528125l-0.032 0.031999L500.235657 556.097628z m14.08868 29.632327l-46.948934 10.143769a2.870935 2.870935 0 0 1-0.575987 0.063999 2.63194 2.63194 0 0 1-2.299947-1.407968 2.476944 2.476944 0 0 1-0.351992-1.279971 2.510943 2.510943 0 0 1 0.767982-1.823959l27.516375-27.517374z m-119.622283-19.584555l50.016864-50.016864 37.506148 37.472149-84.449082 18.176587a3.044931 3.044931 0 0 1-0.799982 0.099998 3.09993 3.09993 0 0 1-2.815936-1.759961v-0.031999a2.978932 2.978932 0 0 1-0.479989-1.663962 3.162928 3.162928 0 0 1 1.023977-2.299948zM214.023159 799.4931a3.237926 3.237926 0 0 1-2.943934-3.231927v-0.319993a3.299925 3.299925 0 0 1 0.927979-1.951955h0.099998l40.353083-40.353084 52.128816 52.128816z m103.457649-53.598783a9.763778 9.763778 0 0 0-5.24788 8.639804 9.344788 9.344788 0 0 0 0.287993 2.335947v-0.063999l8.671803 36.899162a5.327879 5.327879 0 0 1-5.188882 6.61985 5.26288 5.26288 0 0 1-3.807913-1.599964h-0.127998l-52.38481-52.448809L420.201475 585.921951l77.665236-16.768619 37.280153 37.280153c-53.536784 47.008932-126.754121 93.921867-217.603057 139.425833z m225.251884-146.244678h-0.099998l-35.808186-35.808187 200.486446-176.003002a41.607055 41.607055 0 0 0 5.023885-5.343878l0.063999-0.099998c-6.299857 57.376697-86.561034 138.465855-169.696145 217.219066zM698.767148 323.992901l-0.127997-0.099998A77.753234 77.753234 0 0 1 803.692764 209.467502l-0.127997-0.099998-68.705439 68.833437a5.099884 5.099884 0 0 0 0 7.231835l53.216791 53.216792a77.457241 77.457241 0 0 1-89.280972-14.619668z m109.985501 0a72.269358 72.269358 0 0 1-11.299743 9.119792l-0.287993 0.159997h-0.032l-51.48883-51.488831 65.409514-65.408514A77.776233 77.776233 0 0 1 808.752649 323.992901z m-4.259903-65.852505a6.090862 6.090862 0 0 0-2.527943 4.927888 6.376855 6.376855 0 0 0 0.255995 1.79196v-0.032a17.774596 17.774596 0 0 1-2.299948 19.232564l0.031999-0.032a5.973864 5.973864 0 0 0 0.991978 8.38381 6.022863 6.022863 0 0 0 3.583918 1.279971 5.999864 5.999864 0 0 0 4.511898-2.111952 29.450331 29.450331 0 0 0 3.615918-32.192269l0.063998 0.159996a5.885866 5.885866 0 0 0-8.287812-1.407968h0.032z" fill="#FF6C37" p-id="6897"></path></svg>