<svg t="1706105160264" class="icon" viewBox="0 0 1024 1024" version="1.1" xmlns="http://www.w3.org/2000/svg" p-id="17854" width="18" height="18"><path d="M668.650667 64a85.333333 85.333333 0 0 1 60.352 25.002667l163.328 163.328A85.333333 85.333333 0 0 1 917.333333 312.682667V832a128 128 0 0 1-128 128H234.666667a128 128 0 0 1-128-128V192a128 128 0 0 1 128-128h433.984zM618.666667 128H234.666667a64 64 0 0 0-63.893334 60.245333L170.666667 192v640a64 64 0 0 0 60.245333 63.893333L234.666667 896h554.666666a64 64 0 0 0 63.893334-60.245333L853.333333 832V362.666667h-170.666666a64 64 0 0 1-64-64V128z m140.8 405.333333c4.693333 0 8.533333 3.84 8.533333 8.533334v46.933333a8.533333 8.533333 0 0 1-8.533333 8.533333H264.533333a8.533333 8.533333 0 0 1-8.533333-8.533333v-46.933333c0-4.693333 3.84-8.533333 8.533333-8.533334h494.933334z m-256-128c4.693333 0 8.533333 3.84 8.533333 8.533334v46.933333a8.533333 8.533333 0 0 1-8.533333 8.533333H264.533333a8.533333 8.533333 0 0 1-8.533333-8.533333v-46.933333c0-4.693333 3.84-8.533333 8.533333-8.533334h238.933334zM682.666667 133.312V298.666667h165.354666l-0.938666-1.066667-163.349334-163.349333-1.066666-0.938667z" fill="#000000" p-id="17855"></path></svg>