<?xml version="1.0" standalone="no"?><!DOCTYPE svg PUBLIC "-//W3C//DTD SVG 1.1//EN" "http://www.w3.org/Graphics/SVG/1.1/DTD/svg11.dtd"><svg t="1702091156489" class="icon" viewBox="0 0 1024 1024" version="1.1" xmlns="http://www.w3.org/2000/svg" p-id="6551" xmlns:xlink="http://www.w3.org/1999/xlink" width="32" height="32"><path d="M465.92 661.333333a106.666667 106.666667 0 1 0 0-213.333333 106.666667 106.666667 0 0 0 0 213.333333z" fill="#FFFFFF" p-id="6552"></path><path d="M469.333333 554.666667m-85.333333 0a85.333333 85.333333 0 1 0 170.666667 0 85.333333 85.333333 0 1 0-170.666667 0Z" fill="#424144" p-id="6553"></path><path d="M853.333333 170.666667m-85.333333 0a85.333333 85.333333 0 1 0 170.666667 0 85.333333 85.333333 0 1 0-170.666667 0Z" fill="#424144" p-id="6554"></path><path d="M775.68 205.824L503.466667 476.885333l44.373333 44.458667 272.384-272.768z" fill="#424144" p-id="6555"></path><path d="M469.333333 170.666667v277.333333a147.541333 147.541333 0 0 0-26.112 2.218667c-5.589333 1.237333-12.8 4.010667-21.589333 8.32L279.765333 221.056c37.418667-17.92 66.816-29.738667 88.064-35.413333C389.12 180.053333 422.954667 175.018667 469.333333 170.666667z" fill="#6CA338" p-id="6556"></path><path d="M488.32 170.666667v279.552c3.242667 0.597333 5.930667 1.28 8.106667 1.92a13.568 13.568 0 0 0 7.253333 0l196.608-202.922667c-31.616-24.362667-63.146667-42.24-94.634667-53.589333-31.488-11.392-70.613333-19.712-117.333333-24.96z" fill="#4E5A2F" p-id="6557"></path><path d="M262.229333 231.082667l145.194667 233.813333-2.816 2.389333-185.984-203.050666z" fill="#94D608" p-id="6558"></path><path d="M671.274667 881.066667l-142.336-239.786667 2.730666-2.688 188.373334 206.378667a384.853333 384.853333 0 0 1-22.016 18.005333c-5.76 4.266667-14.677333 10.24-26.752 18.048zM359.253333 554.666667H85.333333c3.2-67.84 15.957333-123.306667 38.144-166.4 22.229333-43.093333 48.682667-80.042667 79.36-110.933334l184.490667 204.074667c-11.349333 13.482667-18.773333 24.746667-22.272 33.92-3.498667 9.130667-5.461333 22.229333-5.802667 39.338667zM572.586667 554.666667H853.333333c-2.773333-50.688-9.258667-92.373333-19.541333-125.056-10.24-32.682667-30.208-69.077333-59.861333-109.098667l-205.781334 203.221333c1.792 6.058667 2.944 10.965333 3.456 14.72 0.554667 3.754667 0.853333 9.130667 0.981334 16.213334z" fill="#4E5A2F" p-id="6559"></path><path d="M547.84 623.616l189.184 208.853333c36.778667-44.458667 63.317333-82.944 79.658667-115.498666 16.298667-32.512 28.544-79.232 36.650666-140.074667h-280.746666a144.170667 144.170667 0 0 1-9.301334 24.533333c-2.986667 5.546667-8.106667 12.970667-15.402666 22.186667z" fill="#6BA238" p-id="6560"></path><path d="M428.117333 654.549333l-126.762666 244.650667c-24.874667-12.629333-42.453333-22.528-52.821334-29.653333-10.325333-7.168-23.466667-18.474667-39.296-33.962667l201.6-189.269333c3.797333 2.304 6.656 3.925333 8.618667 4.864 1.962667 0.896 4.864 2.048 8.661333 3.413333z" fill="#4E5A2F" p-id="6561"></path><path d="M509.866667 651.562667l144.853333 240.298666c-47.488 25.856-102.144 41.429333-164.053333 46.805334-61.866667 5.376-119.210667-4.949333-171.989334-30.933334L448 661.333333c13.184 1.152 23.338667 1.152 30.549333 0 7.253333-1.152 17.664-4.394667 31.36-9.770666zM361.088 577.365333c4.352 13.482667 8.832 24.021333 13.482667 31.573334 4.608 7.594667 11.221333 16.213333 19.84 25.898666L192 820.693333c-37.546667-44.8-62.378667-80.981333-74.453333-108.544-12.074667-27.562667-22.826667-72.490667-32.213334-134.784h275.754667z" fill="#94D608" p-id="6562"></path></svg>